<svg width="35" height="38" viewBox="0 0 35 38" fill="none" xmlns="http://www.w3.org/2000/svg">
<path d="M10.4822 21.125C10.4822 19.7083 10.7656 18.475 11.3322 17.425C11.8989 16.3583 12.6822 15.5333 13.6822 14.95C14.6989 14.3667 15.8572 14.075 17.1572 14.075C18.8406 14.075 20.2239 14.4833 21.3072 15.3C22.4072 16.1167 23.1322 17.25 23.4822 18.7H21.0322C20.7989 17.8667 20.3406 17.2083 19.6572 16.725C18.9906 16.2417 18.1572 16 17.1572 16C15.8572 16 14.8072 16.45 14.0072 17.35C13.2072 18.2333 12.8072 19.4917 12.8072 21.125C12.8072 22.775 13.2072 24.05 14.0072 24.95C14.8072 25.85 15.8572 26.3 17.1572 26.3C18.1572 26.3 18.9906 26.0667 19.6572 25.6C20.3239 25.1333 20.7822 24.4667 21.0322 23.6H23.4822C23.1156 25 22.3822 26.125 21.2822 26.975C20.1822 27.8083 18.8072 28.225 17.1572 28.225C15.8572 28.225 14.6989 27.9333 13.6822 27.35C12.6822 26.7667 11.8989 25.9417 11.3322 24.875C10.7656 23.8083 10.4822 22.5583 10.4822 21.125Z" fill="white"/>
<path d="M34.5 21.5C34.5 30.3092 26.917 37.5 17.5 37.5C8.08303 37.5 0.5 30.3092 0.5 21.5C0.5 12.6908 8.08303 5.5 17.5 5.5C26.917 5.5 34.5 12.6908 34.5 21.5Z" stroke="white"/>
</svg>
